<svg xmlns="http://www.w3.org/2000/svg" xmlns:xlink="http://www.w3.org/1999/xlink" width="500" zoomAndPan="magnify" viewBox="0 0 375 374.999991" height="500" preserveAspectRatio="xMidYMid meet" version="1.0"><defs><g/><clipPath id="id1"><path d="M 154.019531 90 L 220.769531 90 L 220.769531 164.058594 L 154.019531 164.058594 Z M 154.019531 90 " clip-rule="nonzero"/></clipPath></defs><g fill="rgb(91.369629%, 19.60907%, 46.269226%)" fill-opacity="1"><g transform="translate(94.703619, 210.749415)"><g><path d="M 3.117188 0 L 16.429688 0 L 16.429688 -0.839844 L 5.238281 -0.839844 L 5.238281 -10.914062 L 13.6875 -10.914062 L 13.6875 -11.753906 L 5.238281 -11.753906 L 5.238281 -21.542969 L 15.777344 -21.542969 L 15.777344 -22.386719 L 3.117188 -22.386719 Z M 3.117188 0 "/></g></g></g><g fill="rgb(91.369629%, 19.60907%, 46.269226%)" fill-opacity="1"><g transform="translate(114.24841, 210.749415)"><g><path d="M 3.117188 0 L 3.960938 0 L 3.960938 -20.953125 L 16.273438 -0.03125 L 16.273438 0 L 17.117188 0 L 17.117188 -22.386719 L 16.273438 -22.386719 L 16.273438 -4.179688 L 5.550781 -22.386719 L 3.117188 -22.386719 Z M 3.117188 0 "/></g></g></g><g fill="rgb(91.369629%, 19.60907%, 46.269226%)" fill-opacity="1"><g transform="translate(134.478988, 210.749415)"><g><path d="M 3.117188 0 L 5.207031 0 L 5.207031 -8.699219 L 6.046875 -9.726562 L 14.496094 0 L 16.960938 0 L 7.296875 -11.285156 L 16.242188 -22.386719 L 15.152344 -22.386719 L 5.207031 -10.039062 L 5.207031 -22.386719 L 3.117188 -22.386719 Z M 3.117188 0 "/></g></g></g><g fill="rgb(91.369629%, 19.60907%, 46.269226%)" fill-opacity="1"><g transform="translate(154.553697, 210.749415)"><g><path d="M 10.972656 0.34375 C 15.246094 0.34375 18.175781 -2.121094 18.175781 -6.578125 L 18.175781 -22.386719 L 17.335938 -22.386719 L 17.335938 -7.296875 C 17.335938 -2.402344 14.125 -0.8125 10.972656 -0.8125 C 7.792969 -0.8125 5.207031 -3.023438 5.207031 -7.296875 L 5.207031 -22.386719 L 3.117188 -22.386719 L 3.117188 -6.640625 C 3.117188 -2.152344 6.640625 0.34375 10.972656 0.34375 Z M 10.972656 0.34375 "/></g></g></g><g fill="rgb(91.369629%, 19.60907%, 46.269226%)" fill-opacity="1"><g transform="translate(175.844112, 210.749415)"><g/></g></g><g fill="rgb(91.369629%, 19.60907%, 46.269226%)" fill-opacity="1"><g transform="translate(192.365225, 210.749415)"><g><path d="M 12.191406 0.375 C 15.277344 0.34375 18.394531 -1.433594 19.453125 -4.425781 L 19.453125 -11.441406 L 14.496094 -11.441406 L 14.496094 -10.601562 L 17.335938 -10.601562 L 17.335938 -3.710938 C 17.335938 -3.710938 16.179688 -1.027344 13.21875 -0.59375 C 8.074219 -0.03125 4.613281 -5.675781 4.613281 -11.035156 C 4.613281 -16.179688 8.011719 -21.605469 12.191406 -21.605469 C 14.308594 -21.605469 16.304688 -20.515625 17.832031 -18.675781 L 18.488281 -19.207031 C 16.773438 -21.261719 14.464844 -22.449219 12.191406 -22.449219 C 6.859375 -22.449219 2.496094 -17.335938 2.496094 -11.035156 C 2.496094 -4.738281 6.859375 0.375 12.191406 0.375 Z M 12.191406 0.375 "/></g></g></g><g fill="rgb(91.369629%, 19.60907%, 46.269226%)" fill-opacity="1"><g transform="translate(214.933694, 210.749415)"><g><path d="M 3.117188 0 L 5.238281 0 L 5.238281 -22.386719 L 3.117188 -22.386719 Z M 3.117188 0 "/></g></g></g><g fill="rgb(91.369629%, 19.60907%, 46.269226%)" fill-opacity="1"><g transform="translate(223.318939, 210.749415)"><g><path d="M 3.117188 0 L 5.238281 0 L 5.238281 -10.882812 L 13.65625 -10.882812 L 13.65625 -11.722656 L 5.238281 -11.722656 L 5.238281 -21.542969 L 15.777344 -21.542969 L 15.777344 -22.386719 L 3.117188 -22.386719 Z M 3.117188 0 "/></g></g></g><g fill="rgb(91.369629%, 19.60907%, 46.269226%)" fill-opacity="1"><g transform="translate(242.209117, 210.749415)"><g><path d="M 8.792969 0 L 10.914062 0 L 10.914062 -21.542969 L 16.585938 -21.542969 L 16.585938 -22.386719 L 3.117188 -22.386719 L 3.117188 -21.542969 L 8.792969 -21.542969 Z M 8.792969 0 "/></g></g></g><g fill="rgb(91.369629%, 19.60907%, 46.269226%)" fill-opacity="1"><g transform="translate(261.909765, 210.749415)"><g><path d="M 8.824219 0.34375 C 9.601562 0.3125 10.039062 0.28125 10.632812 0.125 C 13.4375 -0.625 15.496094 -2.679688 15.839844 -5.207031 C 16.398438 -9.289062 12.8125 -10.941406 10.164062 -12.160156 C 10.007812 -12.222656 9.820312 -12.316406 9.664062 -12.410156 C 6.828125 -13.71875 4.957031 -14.996094 5.019531 -17.054688 C 5.175781 -21.917969 11.972656 -23.664062 13.8125 -19.328125 L 14.589844 -19.671875 C 13.8125 -21.480469 11.535156 -22.976562 8.199219 -22.324219 C 5.488281 -21.792969 2.992188 -19.859375 2.929688 -17.117188 C 2.835938 -13.25 6.828125 -11.378906 8.761719 -10.476562 C 8.949219 -10.414062 9.105469 -10.320312 9.289062 -10.226562 C 12.222656 -8.917969 14.15625 -6.640625 13.75 -4.332031 C 12.875 0.5625 6.421875 0.996094 3.179688 -3.617188 L 2.496094 -3.148438 C 4.300781 -0.5625 6.734375 0.34375 8.824219 0.34375 Z M 8.824219 0.34375 "/></g></g></g><g clip-path="url(#id1)"><path fill="rgb(91.369629%, 19.60907%, 46.269226%)" d="M 213.316406 108.371094 L 204.503906 108.371094 L 204.761719 107.851562 C 205.078125 107.308594 205.339844 106.734375 205.546875 106.140625 C 205.75 105.542969 205.898438 104.933594 205.988281 104.3125 C 206.078125 103.6875 206.109375 103.058594 206.078125 102.429688 C 206.050781 101.800781 205.960938 101.179688 205.8125 100.566406 C 205.664062 99.953125 205.457031 99.359375 205.195312 98.789062 C 204.933594 98.214844 204.617188 97.671875 204.253906 97.160156 C 203.886719 96.644531 203.476562 96.171875 203.019531 95.738281 C 202.5625 95.304688 202.070312 94.917969 201.539062 94.578125 C 201.011719 94.238281 200.453125 93.953125 199.867188 93.71875 C 199.285156 93.488281 198.683594 93.3125 198.0625 93.195312 C 197.445312 93.082031 196.820312 93.023438 196.191406 93.027344 C 195.5625 93.03125 194.941406 93.09375 194.324219 93.214844 C 193.707031 93.335938 193.109375 93.519531 192.523438 93.753906 C 191.941406 93.992188 191.386719 94.285156 190.859375 94.628906 C 190.335938 94.972656 189.84375 95.363281 189.390625 95.800781 C 188.941406 96.242188 188.535156 96.71875 188.171875 97.234375 C 187.957031 96.597656 187.683594 95.992188 187.351562 95.410156 C 187.019531 94.828125 186.632812 94.285156 186.191406 93.78125 C 185.75 93.277344 185.265625 92.820312 184.738281 92.414062 C 184.207031 92.003906 183.640625 91.648438 183.042969 91.351562 C 182.445312 91.054688 181.820312 90.820312 181.175781 90.644531 C 180.53125 90.472656 179.875 90.359375 179.207031 90.316406 C 178.539062 90.273438 177.875 90.292969 177.210938 90.378906 C 176.546875 90.464844 175.902344 90.617188 175.265625 90.832031 C 174.632812 91.046875 174.027344 91.320312 173.449219 91.652344 C 172.867188 91.988281 172.328125 92.375 171.824219 92.816406 C 171.320312 93.257812 170.863281 93.746094 170.457031 94.277344 C 170.050781 94.804688 169.695312 95.371094 169.398438 95.972656 C 169.105469 96.574219 168.867188 97.199219 168.695312 97.84375 C 168.519531 98.492188 168.410156 99.148438 168.367188 99.820312 C 168.320312 100.488281 168.34375 101.15625 168.429688 101.820312 C 168.515625 102.484375 168.664062 103.132812 168.878906 103.769531 L 170.804688 108.371094 L 161.472656 108.371094 C 160.988281 108.371094 160.503906 108.417969 160.027344 108.515625 C 159.550781 108.609375 159.085938 108.75 158.636719 108.9375 C 158.1875 109.125 157.761719 109.351562 157.359375 109.625 C 156.953125 109.894531 156.578125 110.203125 156.234375 110.546875 C 155.890625 110.890625 155.585938 111.265625 155.316406 111.671875 C 155.042969 112.078125 154.816406 112.503906 154.628906 112.957031 C 154.445312 113.40625 154.304688 113.871094 154.207031 114.347656 C 154.113281 114.828125 154.066406 115.308594 154.066406 115.796875 L 154.066406 123.222656 C 154.070312 123.871094 154.15625 124.507812 154.328125 125.132812 C 154.496094 125.757812 154.746094 126.347656 155.070312 126.910156 C 155.394531 127.46875 155.785156 127.976562 156.242188 128.433594 C 156.699219 128.894531 157.210938 129.285156 157.769531 129.609375 L 157.769531 152.921875 C 157.769531 153.652344 157.839844 154.378906 157.984375 155.09375 C 158.125 155.8125 158.335938 156.507812 158.613281 157.183594 C 158.894531 157.859375 159.238281 158.5 159.640625 159.109375 C 160.046875 159.71875 160.507812 160.28125 161.023438 160.796875 C 161.539062 161.316406 162.101562 161.777344 162.707031 162.183594 C 163.3125 162.589844 163.953125 162.933594 164.628906 163.210938 C 165.300781 163.492188 165.996094 163.703125 166.710938 163.84375 C 167.425781 163.988281 168.148438 164.058594 168.878906 164.058594 L 205.910156 164.058594 C 206.640625 164.058594 207.363281 163.988281 208.078125 163.84375 C 208.792969 163.703125 209.488281 163.492188 210.164062 163.210938 C 210.835938 162.933594 211.476562 162.589844 212.082031 162.183594 C 212.691406 161.777344 213.25 161.316406 213.765625 160.796875 C 214.28125 160.28125 214.742188 159.71875 215.148438 159.109375 C 215.554688 158.5 215.894531 157.859375 216.175781 157.183594 C 216.453125 156.507812 216.664062 155.8125 216.808594 155.09375 C 216.949219 154.378906 217.019531 153.652344 217.019531 152.921875 L 217.019531 129.609375 C 217.582031 129.285156 218.089844 128.894531 218.546875 128.433594 C 219.003906 127.976562 219.394531 127.46875 219.71875 126.910156 C 220.046875 126.347656 220.292969 125.757812 220.464844 125.132812 C 220.632812 124.507812 220.71875 123.871094 220.722656 123.222656 L 220.722656 115.796875 C 220.722656 115.308594 220.675781 114.828125 220.582031 114.347656 C 220.488281 113.871094 220.347656 113.40625 220.160156 112.957031 C 219.972656 112.503906 219.746094 112.078125 219.476562 111.671875 C 219.207031 111.265625 218.898438 110.890625 218.554688 110.546875 C 218.210938 110.203125 217.835938 109.894531 217.433594 109.625 C 217.027344 109.351562 216.601562 109.125 216.152344 108.9375 C 215.703125 108.75 215.238281 108.609375 214.761719 108.515625 C 214.285156 108.417969 213.804688 108.371094 213.316406 108.371094 Z M 213.316406 123.222656 L 191.097656 123.222656 L 191.097656 115.796875 L 213.316406 115.796875 Z M 195.914062 100.945312 C 196.359375 100.9375 196.777344 101.039062 197.171875 101.253906 C 197.5625 101.46875 197.875 101.769531 198.101562 102.152344 C 198.332031 102.539062 198.449219 102.953125 198.457031 103.402344 C 198.460938 103.851562 198.355469 104.269531 198.132812 104.660156 L 196.207031 108.371094 L 192.136719 108.371094 L 193.503906 102.839844 C 193.574219 102.570312 193.683594 102.320312 193.835938 102.089844 C 193.988281 101.859375 194.171875 101.65625 194.390625 101.484375 C 194.605469 101.3125 194.847656 101.183594 195.105469 101.089844 C 195.367188 101 195.636719 100.949219 195.914062 100.945312 Z M 175.839844 100.945312 C 175.769531 100.738281 175.71875 100.527344 175.695312 100.308594 C 175.675781 100.089844 175.675781 99.871094 175.707031 99.652344 C 175.734375 99.433594 175.789062 99.222656 175.867188 99.015625 C 175.945312 98.8125 176.046875 98.617188 176.171875 98.4375 C 176.296875 98.253906 176.441406 98.089844 176.605469 97.945312 C 176.769531 97.796875 176.949219 97.671875 177.140625 97.566406 C 177.332031 97.464844 177.535156 97.382812 177.75 97.328125 C 177.960938 97.269531 178.175781 97.238281 178.394531 97.234375 C 178.714844 97.238281 179.023438 97.292969 179.324219 97.402344 C 179.621094 97.507812 179.894531 97.664062 180.140625 97.867188 C 180.386719 98.070312 180.59375 98.308594 180.757812 98.582031 C 180.921875 98.855469 181.035156 99.148438 181.101562 99.460938 L 182.878906 108.371094 L 178.804688 108.371094 Z M 161.472656 115.796875 L 183.691406 115.796875 L 183.691406 123.222656 L 161.472656 123.222656 Z M 165.175781 152.921875 L 165.175781 130.648438 L 183.691406 130.648438 L 183.691406 156.632812 L 168.878906 156.632812 C 168.386719 156.632812 167.914062 156.539062 167.460938 156.351562 C 167.007812 156.164062 166.609375 155.894531 166.261719 155.546875 C 165.914062 155.199219 165.644531 154.796875 165.457031 154.34375 C 165.269531 153.886719 165.175781 153.414062 165.175781 152.921875 Z M 209.613281 152.921875 C 209.613281 153.414062 209.519531 153.886719 209.332031 154.34375 C 209.144531 154.796875 208.878906 155.199219 208.53125 155.546875 C 208.183594 155.894531 207.78125 156.164062 207.328125 156.351562 C 206.875 156.539062 206.402344 156.632812 205.910156 156.632812 L 191.097656 156.632812 L 191.097656 130.648438 L 209.613281 130.648438 Z M 209.613281 152.921875 " fill-opacity="1" fill-rule="nonzero"/></g><g fill="rgb(0%, 0%, 0%)" fill-opacity="1"><g transform="translate(62.984576, 238.818294)"><g><path d="M 3.871094 0 L 5.597656 0 L 5.597656 -4.492188 L 8.199219 -9.367188 C 8.429688 -9.773438 8.796875 -10.054688 9.125 -10.054688 L 9.125 -10.089844 L 7.363281 -10.089844 L 7.363281 -10.054688 L 7.589844 -10.054688 C 7.945312 -10.054688 8.109375 -9.710938 7.933594 -9.355469 L 5.546875 -4.660156 C 4.59375 -6.21875 3.617188 -7.792969 2.679688 -9.355469 C 2.460938 -9.710938 2.527344 -10.054688 2.816406 -10.054688 L 2.917969 -10.054688 L 2.917969 -10.078125 L -0.0234375 -10.078125 L -0.0234375 -10.039062 C 0.125 -10.039062 0.355469 -9.800781 0.597656 -9.46875 L 3.871094 -4.265625 Z M 3.871094 0 "/></g></g></g><g fill="rgb(0%, 0%, 0%)" fill-opacity="1"><g transform="translate(74.148643, 238.818294)"><g><path d="M 5.570312 0.125 C 8.3125 0.125 11.003906 -2.425781 11.003906 -5.039062 C 11.003906 -7.652344 8.378906 -10.203125 5.699219 -10.203125 C 3.070312 -10.203125 0.507812 -7.652344 0.507812 -5.039062 C 0.507812 -2.425781 3.019531 0.125 5.570312 0.125 Z M 5.597656 0 C 3.972656 0 2.375 -2.5 2.375 -5.039062 C 2.375 -7.578125 4.011719 -10.078125 5.671875 -10.078125 C 7.425781 -10.078125 9.140625 -7.578125 9.140625 -5.039062 C 9.140625 -2.5 7.386719 0 5.597656 0 Z M 5.597656 0 "/></g></g></g><g fill="rgb(0%, 0%, 0%)" fill-opacity="1"><g transform="translate(87.800245, 238.818294)"><g><path d="M 3.65625 0.125 C 4.824219 0.125 6.449219 -0.875 6.917969 -1.890625 L 6.917969 0 L 7.78125 0 L 7.78125 0.0117188 C 7.996094 -0.0390625 8.429688 -0.152344 8.644531 -0.214844 L 8.644531 -10.078125 L 6.917969 -10.078125 L 6.917969 -2.664062 C 6.523438 -1.816406 5.242188 -0.976562 4.339844 -0.976562 C 3.339844 -0.976562 2.359375 -1.929688 2.359375 -2.894531 L 2.359375 -10.078125 L 0.648438 -10.078125 L 0.648438 -2.894531 C 0.648438 -1.371094 2.132812 0.125 3.65625 0.125 Z M 3.65625 0.125 "/></g></g></g><g fill="rgb(0%, 0%, 0%)" fill-opacity="1"><g transform="translate(99.205452, 238.818294)"><g/></g></g><g fill="rgb(0%, 0%, 0%)" fill-opacity="1"><g transform="translate(104.747187, 238.818294)"><g><path d="M 4.226562 0 L 5.941406 0 L 5.941406 -9.648438 L 8.175781 -9.648438 C 8.71875 -9.648438 9.496094 -9.253906 9.75 -8.847656 L 9.851562 -8.695312 L 9.964844 -8.695312 L 9.496094 -9.863281 L 9.480469 -9.863281 L 9.480469 -10.078125 L 0.699219 -10.078125 L 0.671875 -10.015625 L 0.621094 -9.863281 L 0.699219 -10.054688 L 0.699219 -9.734375 L 0.277344 -8.695312 L 0.394531 -8.695312 L 0.496094 -8.847656 C 0.75 -9.253906 1.523438 -9.648438 2.070312 -9.648438 L 4.226562 -9.648438 Z M 9.597656 -9.863281 L 9.546875 -10.015625 C 9.53125 -10.066406 9.53125 -10.078125 9.507812 -10.078125 Z M 9.597656 -9.863281 "/></g></g></g><g fill="rgb(0%, 0%, 0%)" fill-opacity="1"><g transform="translate(116.863115, 238.818294)"><g><path d="M 1.546875 0 L 3.261719 0 L 3.261719 -5.140625 L 7.578125 -5.140625 L 7.578125 0 L 9.292969 0 L 9.292969 -10.078125 L 7.578125 -10.078125 L 7.578125 -5.28125 L 3.261719 -5.28125 L 3.261719 -10.078125 L 1.546875 -10.078125 Z M 1.546875 0 "/></g></g></g><g fill="rgb(0%, 0%, 0%)" fill-opacity="1"><g transform="translate(129.29633, 238.818294)"><g><path d="M 0.914062 0 L 2.628906 0 L 2.628906 -10.078125 L 0.914062 -10.078125 Z M 0.914062 0 "/></g></g></g><g fill="rgb(0%, 0%, 0%)" fill-opacity="1"><g transform="translate(135.06651, 238.818294)"><g><path d="M 7.628906 0.0117188 L 7.984375 0.0117188 L 8.097656 -9.480469 C 8.136719 -9.824219 8.300781 -10.027344 8.554688 -10.027344 L 8.554688 -10.066406 L 7.589844 -10.066406 L 7.589844 -9.394531 L 7.617188 -2.96875 C 5.722656 -5.34375 3.820312 -7.703125 1.917969 -10.066406 L -0.621094 -10.066406 L -0.621094 -10.027344 C -0.355469 -10.027344 0.0234375 -9.75 0.304688 -9.394531 L 1.078125 -8.390625 L 1.054688 -0.660156 C 1.054688 -0.34375 0.875 -0.0234375 0.683594 -0.0234375 L 0.609375 -0.0234375 L 0.621094 0 L 2.03125 0 L 2.03125 -0.0390625 L 1.953125 -0.0390625 C 1.777344 -0.0390625 1.585938 -0.355469 1.585938 -0.671875 L 1.535156 -7.820312 C 3.566406 -5.203125 5.597656 -2.589844 7.628906 0.0117188 Z M 7.628906 0.0117188 "/></g></g></g><g fill="rgb(0%, 0%, 0%)" fill-opacity="1"><g transform="translate(146.319416, 238.818294)"><g><path d="M 1.089844 -10.066406 L 1.089844 0.0117188 L 2.804688 0.0117188 L 2.804688 -10.066406 Z M 8.683594 -0.621094 L 4.175781 -6.066406 L 6.957031 -9.203125 C 7.375 -9.671875 7.972656 -10.027344 8.378906 -10.027344 L 8.378906 -10.066406 L 5.671875 -10.066406 L 5.671875 -10.027344 L 5.875 -10.027344 C 6.433594 -10.027344 6.449219 -9.394531 5.914062 -8.757812 L 2.804688 -5.027344 L 6.90625 0.0117188 L 9.609375 0.0117188 L 9.609375 -0.0390625 C 9.355469 -0.0390625 8.988281 -0.292969 8.683594 -0.621094 Z M 8.683594 -0.621094 "/></g></g></g><g fill="rgb(0%, 0%, 0%)" fill-opacity="1"><g transform="translate(157.902301, 238.818294)"><g/></g></g><g fill="rgb(0%, 0%, 0%)" fill-opacity="1"><g transform="translate(163.444033, 238.818294)"><g><path d="M 0.914062 0 L 2.628906 0 L 2.628906 -10.078125 L 0.914062 -10.078125 Z M 0.914062 0 "/></g></g></g><g fill="rgb(0%, 0%, 0%)" fill-opacity="1"><g transform="translate(169.214213, 238.818294)"><g><path d="M 4.226562 0 L 5.941406 0 L 5.941406 -9.648438 L 8.175781 -9.648438 C 8.71875 -9.648438 9.496094 -9.253906 9.75 -8.847656 L 9.851562 -8.695312 L 9.964844 -8.695312 L 9.496094 -9.863281 L 9.480469 -9.863281 L 9.480469 -10.078125 L 0.699219 -10.078125 L 0.671875 -10.015625 L 0.621094 -9.863281 L 0.699219 -10.054688 L 0.699219 -9.734375 L 0.277344 -8.695312 L 0.394531 -8.695312 L 0.496094 -8.847656 C 0.75 -9.253906 1.523438 -9.648438 2.070312 -9.648438 L 4.226562 -9.648438 Z M 9.597656 -9.863281 L 9.546875 -10.015625 C 9.53125 -10.066406 9.53125 -10.078125 9.507812 -10.078125 Z M 9.597656 -9.863281 "/></g></g></g><g fill="rgb(0%, 0%, 0%)" fill-opacity="1"><g transform="translate(181.330141, 238.818294)"><g/></g></g><g fill="rgb(0%, 0%, 0%)" fill-opacity="1"><g transform="translate(186.871873, 238.818294)"><g><path d="M 4.746094 0.101562 L 5.179688 0.101562 L 7.449219 -6.027344 L 10.117188 0.101562 L 10.546875 0.101562 C 11.449219 -2.945312 12.335938 -6.003906 13.238281 -9.050781 C 13.390625 -9.558594 13.773438 -10.066406 14.011719 -10.066406 L 14.101562 -10.066406 L 14.113281 -10.078125 L 11.675781 -10.078125 L 11.675781 -10.039062 L 11.855469 -10.039062 C 12.335938 -10.039062 12.691406 -9.597656 12.617188 -9.125 L 10.789062 -2.386719 L 7.996094 -9.140625 C 7.84375 -9.609375 8.058594 -10.054688 8.464844 -10.054688 L 8.617188 -10.054688 L 8.617188 -10.089844 L 5.355469 -10.089844 L 5.355469 -10.054688 C 5.570312 -10.054688 5.875 -9.660156 6.117188 -9.152344 C 6.460938 -8.339844 6.828125 -7.527344 7.160156 -6.726562 L 5.519531 -2.070312 L 2.703125 -9.125 C 2.539062 -9.609375 2.652344 -10.066406 2.957031 -10.066406 L 3.070312 -10.066406 L 3.070312 -10.105469 L 0.125 -10.105469 L 0.125 -10.066406 C 0.316406 -10.066406 0.632812 -9.582031 0.863281 -9.050781 Z M 4.746094 0.101562 "/></g></g></g><g fill="rgb(0%, 0%, 0%)" fill-opacity="1"><g transform="translate(203.061772, 238.818294)"><g><path d="M 1.089844 0 L 7.398438 0 L 7.414062 -0.0507812 C 7.425781 -0.0507812 7.578125 -1.003906 7.589844 -1.066406 L 7.476562 -1.066406 L 7.414062 -0.914062 C 7.246094 -0.507812 6.449219 -0.113281 5.773438 -0.113281 L 3.238281 -0.113281 C 2.90625 -0.113281 2.804688 -0.265625 2.804688 -0.429688 L 2.804688 -5.179688 L 4.988281 -5.179688 C 5.496094 -5.179688 6.078125 -4.722656 6.167969 -4.265625 L 6.207031 -4.101562 L 6.320312 -4.101562 L 6.320312 -6.371094 L 6.207031 -6.371094 L 6.167969 -6.207031 C 6.078125 -5.75 5.496094 -5.292969 4.988281 -5.292969 L 2.804688 -5.292969 L 2.804688 -9.964844 L 5.761719 -9.964844 C 6.269531 -9.964844 6.90625 -9.507812 7.042969 -9.050781 L 7.109375 -8.886719 L 7.222656 -8.886719 L 7.082031 -10.027344 L 7.09375 -10.027344 L 7.082031 -10.078125 L 1.089844 -10.078125 Z M 1.089844 0 "/></g></g></g><g fill="rgb(0%, 0%, 0%)" fill-opacity="1"><g transform="translate(213.007454, 238.818294)"><g/></g></g><g fill="rgb(0%, 0%, 0%)" fill-opacity="1"><g transform="translate(218.549186, 238.818294)"><g><path d="M 1.089844 0 L 3.960938 0 C 7.195312 0 10.355469 -2.234375 10.355469 -5.039062 C 10.355469 -7.578125 7.769531 -10.078125 4.53125 -10.078125 L 1.089844 -10.078125 Z M 3.796875 -0.101562 C 3.046875 -0.101562 2.804688 -0.265625 2.804688 -0.429688 L 2.804688 -9.976562 L 4.113281 -9.976562 C 6.535156 -9.976562 8.480469 -7.527344 8.480469 -5.039062 C 8.480469 -2.296875 6.15625 -0.101562 3.796875 -0.101562 Z M 3.796875 -0.101562 "/></g></g></g><g fill="rgb(0%, 0%, 0%)" fill-opacity="1"><g transform="translate(231.553518, 238.818294)"><g><path d="M 1.089844 0 L 7.398438 0 L 7.414062 -0.0507812 C 7.425781 -0.0507812 7.578125 -1.003906 7.589844 -1.066406 L 7.476562 -1.066406 L 7.414062 -0.914062 C 7.246094 -0.507812 6.449219 -0.113281 5.773438 -0.113281 L 3.238281 -0.113281 C 2.90625 -0.113281 2.804688 -0.265625 2.804688 -0.429688 L 2.804688 -5.179688 L 4.988281 -5.179688 C 5.496094 -5.179688 6.078125 -4.722656 6.167969 -4.265625 L 6.207031 -4.101562 L 6.320312 -4.101562 L 6.320312 -6.371094 L 6.207031 -6.371094 L 6.167969 -6.207031 C 6.078125 -5.75 5.496094 -5.292969 4.988281 -5.292969 L 2.804688 -5.292969 L 2.804688 -9.964844 L 5.761719 -9.964844 C 6.269531 -9.964844 6.90625 -9.507812 7.042969 -9.050781 L 7.109375 -8.886719 L 7.222656 -8.886719 L 7.082031 -10.027344 L 7.09375 -10.027344 L 7.082031 -10.078125 L 1.089844 -10.078125 Z M 1.089844 0 "/></g></g></g><g fill="rgb(0%, 0%, 0%)" fill-opacity="1"><g transform="translate(241.4992, 238.818294)"><g><path d="M 0.914062 0 L 7.296875 0 L 7.3125 -0.152344 L 7.296875 -0.152344 L 7.5 -1.242188 L 7.386719 -1.242188 L 7.324219 -1.089844 C 7.160156 -0.683594 6.359375 -0.292969 5.6875 -0.292969 L 3.058594 -0.292969 C 2.730469 -0.292969 2.628906 -0.355469 2.628906 -0.429688 L 2.628906 -10.078125 L 0.914062 -10.078125 Z M 0.914062 0 "/></g></g></g><g fill="rgb(0%, 0%, 0%)" fill-opacity="1"><g transform="translate(251.051446, 238.818294)"><g><path d="M 0.914062 0 L 2.628906 0 L 2.628906 -10.078125 L 0.914062 -10.078125 Z M 0.914062 0 "/></g></g></g><g fill="rgb(0%, 0%, 0%)" fill-opacity="1"><g transform="translate(256.821637, 238.818294)"><g><path d="M 4.632812 0.140625 L 4.976562 0.140625 L 8.71875 -8.921875 C 8.988281 -9.496094 9.394531 -10.015625 9.582031 -10.015625 L 9.660156 -10.015625 L 9.683594 -10.078125 L 7.246094 -10.078125 L 7.246094 -10.039062 L 7.4375 -10.039062 C 7.957031 -10.039062 8.25 -9.429688 8.035156 -8.808594 L 5.519531 -2.183594 C 4.582031 -4.378906 3.617188 -6.574219 2.679688 -8.757812 C 2.398438 -9.394531 2.5625 -10.027344 3.019531 -10.027344 L 3.1875 -10.027344 L 3.1875 -10.066406 L -0.152344 -10.066406 L -0.152344 -10.027344 C 0.0390625 -10.027344 0.417969 -9.417969 0.710938 -8.757812 Z M 4.632812 0.140625 "/></g></g></g><g fill="rgb(0%, 0%, 0%)" fill-opacity="1"><g transform="translate(268.658351, 238.818294)"><g><path d="M 1.089844 0 L 7.398438 0 L 7.414062 -0.0507812 C 7.425781 -0.0507812 7.578125 -1.003906 7.589844 -1.066406 L 7.476562 -1.066406 L 7.414062 -0.914062 C 7.246094 -0.507812 6.449219 -0.113281 5.773438 -0.113281 L 3.238281 -0.113281 C 2.90625 -0.113281 2.804688 -0.265625 2.804688 -0.429688 L 2.804688 -5.179688 L 4.988281 -5.179688 C 5.496094 -5.179688 6.078125 -4.722656 6.167969 -4.265625 L 6.207031 -4.101562 L 6.320312 -4.101562 L 6.320312 -6.371094 L 6.207031 -6.371094 L 6.167969 -6.207031 C 6.078125 -5.75 5.496094 -5.292969 4.988281 -5.292969 L 2.804688 -5.292969 L 2.804688 -9.964844 L 5.761719 -9.964844 C 6.269531 -9.964844 6.90625 -9.507812 7.042969 -9.050781 L 7.109375 -8.886719 L 7.222656 -8.886719 L 7.082031 -10.027344 L 7.09375 -10.027344 L 7.082031 -10.078125 L 1.089844 -10.078125 Z M 1.089844 0 "/></g></g></g><g fill="rgb(0%, 0%, 0%)" fill-opacity="1"><g transform="translate(278.604045, 238.818294)"><g><path d="M 1.089844 0 L 2.804688 0 L 2.804688 -4.671875 L 4.011719 -4.671875 C 4.328125 -4.0625 5.355469 -2.375 6.382812 -0.8125 C 6.816406 -0.152344 7.476562 0 9.863281 0 C 9.113281 0 8.835938 -0.152344 8.402344 -0.8125 C 7.273438 -2.550781 6.15625 -4.253906 5.722656 -4.914062 C 7.007812 -5.304688 7.984375 -6.15625 7.984375 -7.210938 C 7.984375 -8.65625 6.066406 -10.078125 4.101562 -10.078125 L 1.089844 -10.078125 Z M 2.804688 -5.101562 L 2.804688 -9.734375 L 3.59375 -9.734375 C 4.847656 -9.734375 6.09375 -8.65625 6.09375 -7.550781 C 6.09375 -6.128906 5.101562 -5.101562 4.101562 -5.101562 Z M 2.804688 -5.101562 "/></g></g></g><g fill="rgb(0%, 0%, 0%)" fill-opacity="1"><g transform="translate(290.542292, 238.818294)"><g/></g></g><g fill="rgb(0%, 0%, 0%)" fill-opacity="1"><g transform="translate(296.084024, 238.818294)"><g><path d="M 0.914062 0 L 2.628906 0 L 2.628906 -10.078125 L 0.914062 -10.078125 Z M 0.914062 0 "/></g></g></g><g fill="rgb(0%, 0%, 0%)" fill-opacity="1"><g transform="translate(301.854204, 238.818294)"><g><path d="M 4.226562 0 L 5.941406 0 L 5.941406 -9.648438 L 8.175781 -9.648438 C 8.71875 -9.648438 9.496094 -9.253906 9.75 -8.847656 L 9.851562 -8.695312 L 9.964844 -8.695312 L 9.496094 -9.863281 L 9.480469 -9.863281 L 9.480469 -10.078125 L 0.699219 -10.078125 L 0.671875 -10.015625 L 0.621094 -9.863281 L 0.699219 -10.054688 L 0.699219 -9.734375 L 0.277344 -8.695312 L 0.394531 -8.695312 L 0.496094 -8.847656 C 0.75 -9.253906 1.523438 -9.648438 2.070312 -9.648438 L 4.226562 -9.648438 Z M 9.597656 -9.863281 L 9.546875 -10.015625 C 9.53125 -10.066406 9.53125 -10.078125 9.507812 -10.078125 Z M 9.597656 -9.863281 "/></g></g></g></svg>