<svg xmlns="http://www.w3.org/2000/svg" xmlns:xlink="http://www.w3.org/1999/xlink" width="500" zoomAndPan="magnify" viewBox="0 0 375 374.999991" height="500" preserveAspectRatio="xMidYMid meet" version="1.0"><defs><g/><clipPath id="id1"><path d="M 127.636719 74.121094 L 246.988281 74.121094 L 246.988281 206.878906 L 127.636719 206.878906 Z M 127.636719 74.121094 " clip-rule="nonzero"/></clipPath></defs><rect x="-37.5" width="450" fill="rgb(100%, 100%, 100%)" y="-37.499999" height="449.999989" fill-opacity="1"/><rect x="-37.5" width="450" fill="rgb(100%, 100%, 100%)" y="-37.499999" height="449.999989" fill-opacity="1"/><rect x="-37.5" width="450" fill="rgb(100%, 100%, 100%)" y="-37.499999" height="449.999989" fill-opacity="1"/><rect x="-37.5" width="450" fill="rgb(100%, 100%, 100%)" y="-37.499999" height="449.999989" fill-opacity="1"/><g fill="rgb(91.369629%, 19.60907%, 46.269226%)" fill-opacity="1"><g transform="translate(187.48691, 290.360822)"><g/></g></g><g clip-path="url(#id1)"><path fill="rgb(91.369629%, 19.60907%, 46.269226%)" d="M 233.660156 107.3125 L 217.902344 107.3125 L 218.367188 106.382812 C 218.929688 105.40625 219.394531 104.386719 219.765625 103.320312 C 220.132812 102.257812 220.398438 101.167969 220.558594 100.050781 C 220.71875 98.933594 220.773438 97.8125 220.71875 96.6875 C 220.664062 95.5625 220.503906 94.449219 220.238281 93.355469 C 219.972656 92.257812 219.605469 91.199219 219.136719 90.175781 C 218.667969 89.148438 218.109375 88.179688 217.453125 87.261719 C 216.800781 86.34375 216.066406 85.496094 215.25 84.722656 C 214.433594 83.945312 213.550781 83.253906 212.605469 82.648438 C 211.65625 82.042969 210.660156 81.53125 209.613281 81.113281 C 208.570312 80.699219 207.492188 80.386719 206.386719 80.179688 C 205.28125 79.96875 204.167969 79.867188 203.042969 79.875 C 201.917969 79.878906 200.804688 79.992188 199.703125 80.210938 C 198.597656 80.429688 197.527344 80.753906 196.484375 81.175781 C 195.445312 81.601562 194.453125 82.125 193.507812 82.738281 C 192.566406 83.355469 191.691406 84.054688 190.882812 84.835938 C 190.074219 85.621094 189.347656 86.476562 188.703125 87.398438 C 188.511719 86.832031 188.292969 86.277344 188.046875 85.730469 C 187.804688 85.1875 187.53125 84.65625 187.234375 84.136719 C 186.9375 83.617188 186.617188 83.117188 186.269531 82.628906 C 185.921875 82.144531 185.550781 81.675781 185.160156 81.226562 C 184.769531 80.777344 184.355469 80.347656 183.917969 79.9375 C 183.484375 79.527344 183.03125 79.140625 182.558594 78.777344 C 182.085938 78.410156 181.597656 78.070312 181.089844 77.753906 C 180.585938 77.4375 180.066406 77.148438 179.53125 76.882812 C 178.996094 76.617188 178.449219 76.378906 177.894531 76.167969 C 177.335938 75.957031 176.769531 75.773438 176.191406 75.617188 C 175.617188 75.460938 175.035156 75.335938 174.445312 75.234375 C 173.859375 75.136719 173.265625 75.070312 172.671875 75.027344 C 172.078125 74.988281 171.480469 74.976562 170.886719 74.996094 C 170.289062 75.015625 169.695312 75.0625 169.105469 75.140625 C 168.511719 75.21875 167.925781 75.324219 167.347656 75.457031 C 166.765625 75.59375 166.191406 75.757812 165.628906 75.949219 C 165.0625 76.140625 164.507812 76.359375 163.964844 76.605469 C 163.421875 76.847656 162.890625 77.121094 162.375 77.417969 C 161.859375 77.71875 161.355469 78.039062 160.871094 78.386719 C 160.386719 78.734375 159.917969 79.105469 159.46875 79.5 C 159.023438 79.894531 158.59375 80.308594 158.183594 80.742188 C 157.777344 81.179688 157.390625 81.632812 157.027344 82.105469 C 156.664062 82.582031 156.324219 83.070312 156.007812 83.578125 C 155.691406 84.085938 155.402344 84.605469 155.136719 85.144531 C 154.875 85.679688 154.636719 86.226562 154.425781 86.785156 C 154.214844 87.34375 154.03125 87.914062 153.875 88.488281 C 153.722656 89.066406 153.59375 89.648438 153.496094 90.238281 C 153.398438 90.828125 153.328125 91.421875 153.289062 92.019531 C 153.25 92.617188 153.238281 93.210938 153.257812 93.808594 C 153.277344 94.40625 153.324219 95.003906 153.402344 95.59375 C 153.476562 96.1875 153.582031 96.777344 153.71875 97.359375 C 153.851562 97.941406 154.015625 98.515625 154.207031 99.082031 L 157.648438 107.3125 L 140.964844 107.3125 C 140.09375 107.3125 139.234375 107.398438 138.378906 107.566406 C 137.527344 107.738281 136.699219 107.988281 135.894531 108.324219 C 135.09375 108.65625 134.328125 109.066406 133.605469 109.550781 C 132.882812 110.035156 132.214844 110.582031 131.601562 111.199219 C 130.984375 111.816406 130.4375 112.488281 129.953125 113.210938 C 129.46875 113.9375 129.0625 114.703125 128.730469 115.507812 C 128.394531 116.3125 128.144531 117.144531 127.976562 117.996094 C 127.804688 118.851562 127.722656 119.714844 127.722656 120.585938 L 127.722656 133.863281 C 127.726562 135.023438 127.882812 136.160156 128.1875 137.277344 C 128.492188 138.394531 128.933594 139.453125 129.515625 140.457031 C 130.097656 141.457031 130.796875 142.367188 131.613281 143.183594 C 132.433594 144.003906 133.339844 144.703125 134.34375 145.28125 L 134.34375 186.964844 C 134.34375 187.617188 134.375 188.269531 134.4375 188.917969 C 134.5 189.566406 134.597656 190.210938 134.722656 190.851562 C 134.851562 191.492188 135.007812 192.121094 135.199219 192.746094 C 135.386719 193.371094 135.605469 193.984375 135.855469 194.585938 C 136.101562 195.191406 136.382812 195.777344 136.6875 196.355469 C 136.996094 196.929688 137.328125 197.488281 137.691406 198.03125 C 138.050781 198.570312 138.4375 199.09375 138.851562 199.597656 C 139.265625 200.105469 139.699219 200.585938 140.160156 201.046875 C 140.621094 201.507812 141.101562 201.945312 141.605469 202.359375 C 142.109375 202.773438 142.628906 203.160156 143.171875 203.523438 C 143.710938 203.886719 144.269531 204.222656 144.84375 204.527344 C 145.417969 204.835938 146.003906 205.113281 146.605469 205.363281 C 147.207031 205.613281 147.816406 205.832031 148.441406 206.023438 C 149.0625 206.210938 149.691406 206.371094 150.332031 206.496094 C 150.96875 206.625 151.613281 206.71875 152.257812 206.785156 C 152.90625 206.847656 153.554688 206.878906 154.207031 206.878906 L 220.417969 206.878906 C 221.070312 206.878906 221.71875 206.847656 222.367188 206.785156 C 223.011719 206.71875 223.65625 206.625 224.292969 206.496094 C 224.933594 206.371094 225.5625 206.210938 226.183594 206.023438 C 226.808594 205.832031 227.417969 205.613281 228.019531 205.363281 C 228.621094 205.113281 229.207031 204.835938 229.78125 204.527344 C 230.355469 204.222656 230.914062 203.886719 231.453125 203.523438 C 231.996094 203.160156 232.515625 202.773438 233.019531 202.359375 C 233.523438 201.945312 234.003906 201.507812 234.464844 201.046875 C 234.925781 200.585938 235.359375 200.105469 235.773438 199.597656 C 236.1875 199.09375 236.574219 198.570312 236.933594 198.03125 C 237.296875 197.488281 237.628906 196.929688 237.9375 196.355469 C 238.242188 195.777344 238.523438 195.191406 238.769531 194.585938 C 239.019531 193.984375 239.238281 193.371094 239.425781 192.746094 C 239.617188 192.121094 239.773438 191.492188 239.902344 190.851562 C 240.027344 190.210938 240.125 189.566406 240.1875 188.917969 C 240.25 188.269531 240.28125 187.617188 240.28125 186.964844 L 240.28125 145.28125 C 241.285156 144.703125 242.191406 144.003906 243.011719 143.183594 C 243.828125 142.367188 244.527344 141.457031 245.109375 140.457031 C 245.691406 139.453125 246.132812 138.394531 246.4375 137.277344 C 246.742188 136.160156 246.898438 135.023438 246.902344 133.863281 L 246.902344 120.585938 C 246.902344 119.714844 246.820312 118.851562 246.648438 117.996094 C 246.480469 117.144531 246.230469 116.3125 245.894531 115.507812 C 245.5625 114.703125 245.15625 113.9375 244.671875 113.210938 C 244.1875 112.488281 243.640625 111.816406 243.023438 111.199219 C 242.410156 110.582031 241.742188 110.035156 241.019531 109.550781 C 240.296875 109.066406 239.53125 108.65625 238.730469 108.324219 C 237.925781 107.988281 237.097656 107.738281 236.246094 107.566406 C 235.390625 107.398438 234.53125 107.3125 233.660156 107.3125 Z M 233.660156 133.863281 L 193.933594 133.863281 L 193.933594 120.585938 L 233.660156 120.585938 Z M 202.542969 94.035156 C 203.339844 94.015625 204.089844 94.199219 204.789062 94.585938 C 205.492188 94.96875 206.046875 95.507812 206.457031 96.195312 C 206.871094 96.882812 207.082031 97.625 207.089844 98.425781 C 207.101562 99.226562 206.90625 99.976562 206.515625 100.675781 L 203.070312 107.3125 L 195.789062 107.3125 L 198.238281 97.421875 C 198.359375 96.941406 198.558594 96.496094 198.828125 96.078125 C 199.097656 95.664062 199.429688 95.304688 199.816406 95 C 200.207031 94.691406 200.632812 94.457031 201.101562 94.292969 C 201.566406 94.128906 202.046875 94.042969 202.542969 94.035156 Z M 166.652344 94.035156 C 166.523438 93.664062 166.4375 93.285156 166.398438 92.890625 C 166.355469 92.5 166.359375 92.109375 166.414062 91.71875 C 166.464844 91.332031 166.5625 90.953125 166.703125 90.585938 C 166.84375 90.21875 167.023438 89.871094 167.25 89.546875 C 167.472656 89.222656 167.730469 88.929688 168.019531 88.667969 C 168.3125 88.40625 168.632812 88.179688 168.976562 87.992188 C 169.324219 87.808594 169.6875 87.664062 170.066406 87.5625 C 170.445312 87.460938 170.832031 87.40625 171.222656 87.398438 C 171.792969 87.402344 172.34375 87.5 172.878906 87.695312 C 173.417969 87.890625 173.902344 88.167969 174.34375 88.53125 C 174.785156 88.894531 175.152344 89.320312 175.445312 89.808594 C 175.738281 90.296875 175.941406 90.820312 176.054688 91.378906 L 179.234375 107.3125 L 171.949219 107.3125 Z M 140.964844 120.585938 L 180.691406 120.585938 L 180.691406 133.863281 L 140.964844 133.863281 Z M 147.585938 186.964844 L 147.585938 147.140625 L 180.691406 147.140625 L 180.691406 193.605469 L 154.207031 193.605469 C 153.769531 193.605469 153.339844 193.5625 152.914062 193.476562 C 152.488281 193.390625 152.074219 193.265625 151.671875 193.097656 C 151.269531 192.933594 150.890625 192.726562 150.527344 192.484375 C 150.167969 192.242188 149.832031 191.96875 149.523438 191.660156 C 149.214844 191.351562 148.941406 191.015625 148.699219 190.652344 C 148.460938 190.292969 148.253906 189.910156 148.089844 189.507812 C 147.921875 189.105469 147.796875 188.6875 147.710938 188.261719 C 147.628906 187.835938 147.585938 187.402344 147.585938 186.964844 Z M 227.039062 186.964844 C 227.039062 187.402344 226.996094 187.835938 226.914062 188.261719 C 226.828125 188.6875 226.703125 189.105469 226.535156 189.507812 C 226.371094 189.910156 226.164062 190.292969 225.925781 190.652344 C 225.683594 191.015625 225.410156 191.351562 225.101562 191.660156 C 224.792969 191.96875 224.457031 192.242188 224.097656 192.484375 C 223.734375 192.726562 223.355469 192.933594 222.953125 193.097656 C 222.550781 193.265625 222.136719 193.390625 221.710938 193.476562 C 221.285156 193.5625 220.855469 193.605469 220.417969 193.605469 L 193.933594 193.605469 L 193.933594 147.140625 L 227.039062 147.140625 Z M 227.039062 186.964844 " fill-opacity="1" fill-rule="nonzero"/></g></svg>